<?xml version="1.0" standalone="no"?>
<!DOCTYPE svg PUBLIC "-//W3C//DTD SVG 20010904//EN"
 "http://www.w3.org/TR/2001/REC-SVG-20010904/DTD/svg10.dtd">
<svg version="1.0" xmlns="http://www.w3.org/2000/svg"
 width="1347.000000pt" height="911.000000pt" viewBox="0 0 1347.000000 911.000000"
 preserveAspectRatio="xMidYMid meet">

<g transform="translate(0.000000,911.000000) scale(0.100000,-0.100000)"
fill="#000000" stroke="none">
<path d="M5146 7583 c2 -21 14 -155 26 -298 20 -225 23 -333 23 -805 1 -371 5
-561 13 -595 18 -80 46 -172 92 -300 75 -212 76 -216 140 -575 17 -96 34 -178
38 -182 4 -4 52 -14 107 -23 131 -20 244 -42 380 -72 102 -23 241 -49 575
-108 74 -13 147 -25 162 -27 25 -3 33 7 118 156 50 87 104 178 120 202 17 23
30 45 30 49 0 6 118 166 150 203 11 13 20 31 20 40 0 14 -2 13 -13 -2 -12 -16
-13 -14 -9 16 3 28 -9 54 -74 158 -43 69 -81 127 -85 130 -12 9 -55 103 -94
205 -22 55 -43 105 -48 112 -12 16 -70 137 -118 246 -26 59 -37 97 -35 119 5
39 -37 146 -126 325 -47 95 -66 123 -84 127 -24 6 -84 78 -84 100 0 6 -9 17
-20 24 -18 11 -25 10 -45 -6 -18 -14 -21 -22 -12 -31 8 -8 4 -11 -18 -11 -25
-1 -27 -2 -12 -11 26 -15 20 -31 -10 -27 -32 3 -45 12 -126 88 -66 62 -136
158 -222 305 -32 55 -96 158 -142 229 l-84 129 -29 -28 c-19 -18 -43 -29 -72
-32 -56 -6 -84 16 -139 107 -56 95 -65 101 -79 53 -21 -73 -24 -179 -7 -225
16 -43 37 -128 32 -128 -2 0 -13 18 -24 41 -12 22 -33 52 -47 67 -14 15 -40
56 -59 92 -18 36 -51 96 -73 133 -40 68 -40 68 -36 30z m1304 -1020 c0 -10 1
-34 3 -53 2 -30 -2 -35 -20 -38 -19 -3 -23 -10 -23 -43 0 -32 -4 -39 -19 -39
-17 0 -19 8 -17 83 l1 82 33 3 c17 2 32 7 32 13 0 17 9 9 10 -8z m-176 -11
c-1 -7 -2 -37 -2 -67 l-2 -55 -40 0 c-33 0 -40 -3 -40 -20 0 -17 7 -20 52 -20
40 0 49 -3 40 -12 -15 -15 -16 -48 -2 -48 23 0 8 -19 -20 -25 -24 -5 -30 -12
-30 -32 0 -18 4 -24 15 -20 8 4 17 2 20 -2 7 -12 88 -1 97 12 3 6 6 -6 5 -26
-1 -37 -1 -37 -44 -37 -27 0 -43 -5 -44 -12 0 -7 -4 -4 -9 7 -7 18 -9 16 -15
-12 -7 -30 -25 -47 -25 -23 0 6 -6 10 -13 10 -20 0 -53 -27 -44 -36 4 -4 13
-2 19 4 7 7 16 12 20 12 4 0 0 -8 -9 -17 -17 -17 -21 -16 -78 22 -33 22 -86
56 -117 75 -32 19 -60 43 -63 52 -6 18 32 104 42 94 3 -3 2 -11 -3 -19 -5 -7
0 -3 11 10 17 19 32 23 83 24 35 1 60 4 57 8 -4 3 -12 6 -18 6 -14 0 -28 73
-15 81 5 3 15 0 23 -6 8 -6 24 -10 37 -8 19 2 24 10 26 41 3 34 6 37 33 37 16
0 29 5 29 11 0 6 6 9 13 7 6 -3 12 -10 11 -16z m-204 -52 c-6 -11 -13 -20 -16
-20 -2 0 0 9 6 20 6 11 13 20 16 20 2 0 0 -9 -6 -20z m-37 -60 c-3 -10 -12
-25 -21 -32 -13 -11 -12 -8 2 20 19 36 27 41 19 12z m353 -117 c-1 -38 -26
-42 -26 -4 0 19 5 31 14 31 8 0 13 -10 12 -27z m-39 -48 c-4 -11 -47 -8 -61 5
-5 5 7 8 28 7 20 -1 34 -6 33 -12z m-48 -128 c8 -10 7 -14 -4 -14 -8 0 -12 5
-9 11 3 6 -1 3 -9 -6 -15 -19 -29 -14 -20 8 7 18 27 18 42 1z m41 -22 c0 -38
22 -48 38 -19 11 20 36 9 28 -12 -4 -10 2 -14 20 -14 31 0 39 -20 24 -65 -13
-41 -30 -46 -30 -10 0 20 -5 25 -25 25 -20 0 -24 5 -22 23 2 17 -3 22 -23 22
-22 0 -25 5 -28 43 -2 25 1 42 7 42 6 0 11 -16 11 -35z m-50 -36 c0 -5 -4 -9
-10 -9 -5 0 -10 7 -10 16 0 8 5 12 10 9 6 -3 10 -10 10 -16z m-44 -10 c19 -22
19 -22 -3 -10 -24 12 -39 31 -25 31 5 0 17 -10 28 -21z m60 -26 c-1 -24 3 -28
27 -28 30 0 53 -26 43 -51 -3 -8 -1 -14 4 -14 5 0 7 -7 3 -17 -5 -13 -11 -10
-35 18 -16 19 -39 44 -50 57 -14 15 -16 22 -7 23 11 0 11 2 1 6 -10 4 -10 8
-1 19 15 18 15 18 15 -13z m105 -142 c-6 -10 -7 -22 -3 -27 4 -5 -1 -2 -11 5
-13 11 -15 17 -6 27 17 21 31 17 20 -5z m26 -23 c-3 -8 -6 -5 -6 6 -1 11 2 17
5 13 3 -3 4 -12 1 -19z m36 -70 c3 -11 10 -17 15 -14 6 3 13 -5 16 -19 7 -27
26 -34 26 -10 0 9 6 12 15 9 9 -4 15 -1 15 7 0 8 7 1 16 -16 8 -16 13 -38 10
-47 -2 -11 4 -24 17 -33 17 -12 18 -17 7 -30 -7 -8 -18 -15 -26 -15 -16 0
-139 159 -140 182 -2 23 23 12 29 -14z m165 -217 c4 -28 -13 -20 -21 9 -3 14
-1 20 6 17 7 -2 14 -14 15 -26z m52 -61 c0 -5 -4 -10 -10 -10 -5 0 -10 5 -10
10 0 6 5 10 10 10 6 0 10 -4 10 -10z m20 -50 c0 -5 -2 -10 -4 -10 -3 0 -8 5
-11 10 -3 6 -1 10 4 10 6 0 11 -4 11 -10z m48 -115 c-3 -3 -9 2 -12 12 -6 14
-5 15 5 6 7 -7 10 -15 7 -18z m46 -1 c3 -8 2 -12 -4 -9 -6 3 -10 10 -10 16 0
14 7 11 14 -7z m16 -64 c0 -5 -7 -10 -16 -10 -8 0 -12 5 -9 10 3 6 10 10 16
10 5 0 9 -4 9 -10z m280 -99 c0 -6 -4 -13 -10 -16 -5 -3 -10 1 -10 9 0 9 5 16
10 16 6 0 10 -4 10 -9z"/>
<path d="M6018 6293 c7 -3 16 -2 19 1 4 3 -2 6 -13 5 -11 0 -14 -3 -6 -6z"/>
<path d="M6007 6249 c7 -7 15 -10 18 -7 3 3 -2 9 -12 12 -14 6 -15 5 -6 -5z"/>
<path d="M6124 6175 c28 -22 56 -24 56 -3 0 6 -7 8 -15 4 -9 -3 -15 0 -15 8 0
8 -11 14 -27 14 l-27 0 28 -23z"/>
<path d="M6530 5741 c0 -5 7 -12 16 -15 14 -5 15 -4 4 9 -14 17 -20 19 -20 6z"/>
<path d="M7268 6990 c51 -78 97 -167 152 -293 111 -256 256 -527 347 -652 25
-33 46 -61 48 -63 1 -2 39 43 82 100 44 57 113 138 153 181 l73 78 -24 25
c-13 14 -62 58 -108 97 -47 40 -134 118 -195 174 -61 57 -126 110 -146 120
-19 9 -46 24 -60 34 -14 9 -70 46 -125 82 -55 36 -127 85 -160 108 l-60 44 23
-35z"/>
<path d="M3121 6724 c-29 -31 -66 -79 -84 -105 -17 -27 -35 -49 -39 -49 -12 0
-58 -73 -52 -82 3 -5 1 -7 -4 -6 -13 4 -64 -60 -57 -72 4 -6 1 -9 -7 -8 -7 2
-12 -3 -10 -10 1 -6 -3 -11 -8 -10 -6 2 -18 -10 -29 -27 -15 -25 -16 -34 -6
-53 8 -15 15 -20 19 -13 11 18 25 13 23 -9 -1 -17 -30 -37 -48 -32 -4 0 -6
-12 -5 -28 1 -27 4 -30 36 -30 20 0 41 5 48 12 9 9 12 8 12 -4 0 -18 -20 -28
-60 -28 -19 0 -29 -6 -33 -20 -3 -11 -1 -23 4 -26 5 -3 9 4 9 15 0 17 6 21 35
21 19 0 35 -4 35 -10 0 -5 10 -18 22 -29 20 -19 22 -19 34 -3 11 14 13 8 10
-44 -2 -34 -7 -67 -11 -74 -6 -9 -3 -9 15 0 16 9 19 14 10 20 -8 5 -8 9 -2 11
9 3 45 142 76 291 9 42 95 362 110 411 8 26 13 47 12 47 -2 0 -27 -25 -55 -56z
m-136 -364 c-9 -27 13 -26 24 2 6 18 9 19 14 5 4 -10 3 -17 -1 -17 -4 0 -8
-12 -9 -27 0 -15 -6 -29 -12 -31 -5 -2 -8 -9 -5 -17 3 -8 1 -22 -4 -31 -8 -14
-9 -10 -7 17 1 18 -2 40 -9 48 -8 12 -8 13 2 7 6 -4 12 -4 12 -1 0 10 -28 35
-39 35 -18 0 -12 18 7 23 31 8 33 7 27 -13z m-82 -31 c-6 -6 -9 -19 -5 -28 5
-14 4 -14 -11 1 -19 18 -23 33 -7 23 6 -3 10 -1 10 4 0 6 5 11 12 11 9 0 9 -3
1 -11z m4 -81 c-3 -7 -5 -2 -5 12 0 14 2 19 5 13 2 -7 2 -19 0 -25z"/>
<path d="M3413 6430 c-6 -17 -8 -28 -3 -25 12 7 23 -32 14 -47 -5 -7 -10 -4
-16 11 -4 12 -13 19 -19 16 -6 -4 -8 -14 -5 -22 3 -8 2 -12 -2 -9 -5 3 -17
-12 -27 -32 -10 -20 -24 -44 -31 -52 -6 -8 -15 -31 -19 -50 -5 -27 -65 -151
-80 -168 -1 -2 -14 -5 -28 -8 -21 -3 -29 1 -40 22 l-14 26 -32 -43 c-17 -24
-29 -49 -26 -57 2 -7 1 -11 -4 -7 -5 3 -23 -3 -39 -12 -29 -17 -31 -17 -53 2
l-22 20 13 -21 c17 -27 -2 -71 -53 -125 -19 -20 -40 -50 -48 -67 -8 -18 -17
-32 -21 -32 -5 0 -8 -7 -8 -15 0 -8 -9 -24 -21 -36 -11 -11 -18 -23 -15 -26 3
-3 12 2 22 11 10 10 24 14 36 11 31 -10 51 13 43 52 -6 35 10 78 26 68 5 -4 7
-11 4 -16 -4 -5 5 -9 19 -9 14 0 28 5 31 10 3 6 15 10 26 10 14 0 19 -7 19
-25 0 -21 5 -25 30 -25 29 0 30 0 23 -45 -5 -38 -3 -45 11 -45 9 0 16 8 16 20
0 11 5 20 10 20 6 0 10 -8 8 -17 -2 -10 5 -19 16 -21 15 -3 18 0 13 17 -3 12
-2 21 2 21 3 0 7 18 7 41 2 50 19 72 28 35 5 -22 12 -25 59 -28 43 -2 51 -6
49 -20 -2 -11 3 -18 13 -18 9 0 15 -9 16 -22 0 -13 2 -38 3 -55 4 -32 3 -33
-34 -33 -21 0 -40 4 -42 9 -4 11 -21 14 -65 12 -25 -1 -32 -6 -35 -23 -6 -36
13 -97 31 -101 11 -3 9 -5 -6 -6 -21 -1 -23 -6 -23 -51 0 -27 -1 -53 -2 -57
-2 -5 7 -9 19 -11 27 -4 38 -38 29 -83 -5 -27 -4 -29 18 -23 19 4 25 1 30 -19
3 -14 14 -27 25 -30 16 -4 19 -11 14 -46 -6 -40 -5 -41 25 -41 30 0 31 -2 26
-32 -9 -53 -13 -59 -31 -56 -16 3 -18 -6 -19 -61 -1 -57 -4 -66 -24 -73 -20
-7 -22 -6 -18 17 3 14 2 25 -3 25 -4 0 -14 3 -23 6 -13 5 -16 -1 -16 -25 0
-35 -7 -38 -36 -16 -22 17 -54 20 -54 5 0 -5 9 -10 19 -10 12 0 20 -7 20 -17
0 -10 3 -38 7 -62 6 -35 4 -45 -10 -53 -31 -18 -19 -38 24 -38 36 0 40 -3 40
-24 0 -13 6 -27 13 -29 9 -4 8 -8 -3 -16 -11 -8 -18 -7 -26 4 -6 8 -21 15 -33
15 -22 0 -28 -14 -11 -25 6 -3 10 -12 10 -18 0 -19 -100 -16 -101 3 0 10 -3 8
-8 -5 -5 -11 -6 -25 -4 -31 6 -17 -8 -23 -53 -24 -76 -3 -116 -12 -111 -24 4
-9 -8 -13 -36 -14 -23 -1 -43 -7 -45 -12 -2 -6 -10 -10 -18 -10 -8 0 -24 -6
-35 -12 -17 -10 -23 -10 -26 0 -3 6 -9 12 -15 12 -6 0 -4 -7 3 -17 12 -15 12
-16 -4 -10 -10 4 -20 7 -23 7 -2 0 -1 8 2 18 3 9 -4 0 -16 -21 -16 -28 -24
-36 -34 -28 -13 11 -72 -20 -59 -32 10 -10 43 -8 43 2 0 5 9 7 19 4 20 -5 20
-5 1 -26 -24 -25 -18 -34 13 -20 12 5 45 18 72 28 100 35 116 42 127 53 9 9 8
12 -4 12 -9 0 -20 -4 -23 -10 -3 -5 -13 -10 -21 -10 -14 0 -14 2 0 15 8 8 18
15 22 15 4 0 12 8 19 17 12 16 14 16 29 0 10 -9 13 -17 7 -17 -6 0 -11 -4 -11
-9 0 -11 38 -2 46 10 3 5 -5 14 -18 19 -22 10 -21 10 6 6 21 -3 30 1 33 14 4
13 15 17 52 17 25 -1 61 7 79 15 17 9 32 13 32 8 0 -5 -9 -12 -20 -15 -11 -3
-20 -10 -20 -15 0 -8 73 6 180 36 30 8 70 19 88 24 19 4 36 11 40 14 3 4 13
37 23 74 9 38 60 154 111 258 92 184 121 253 169 399 12 39 42 113 66 166 l45
96 -60 151 c-33 83 -67 183 -77 223 -16 71 -34 119 -35 91 0 -7 -4 -11 -9 -8
-4 3 -11 39 -14 79 -4 41 -11 85 -17 98 -8 20 -9 16 -5 -21 3 -25 8 -79 11
-120 3 -41 7 -88 9 -105 9 -89 9 -129 -3 -133 -7 -2 -12 -1 -12 1 0 3 -15 61
-34 129 -18 67 -46 175 -61 238 -24 100 -58 200 -67 200 -2 0 -9 -14 -15 -30z
m237 -411 c0 -11 -4 -17 -10 -14 -5 3 -10 13 -10 21 0 8 5 14 10 14 6 0 10 -9
10 -21z m-573 -69 c1 -10 -1 -21 -5 -24 -4 -2 -7 9 -7 25 -1 31 7 30 12 -1z
m218 -49 c3 -6 -3 -9 -14 -8 -11 0 -17 5 -15 9 7 11 22 10 29 -1z m-315 -41
c-8 -5 -17 -7 -19 -4 -3 3 1 9 9 14 8 5 17 7 19 4 3 -3 -1 -9 -9 -14z m567 4
c-3 -3 -12 -4 -19 -1 -8 3 -5 6 6 6 11 1 17 -2 13 -5z m-383 -13 c3 -5 3 -30
0 -55 -6 -37 -9 -44 -20 -35 -8 6 -12 15 -9 19 2 4 0 21 -4 38 -5 17 -7 33 -3
36 8 9 30 7 36 -3z m133 -28 c-3 -10 -5 -4 -5 12 0 17 2 24 5 18 2 -7 2 -21 0
-30z m293 12 c0 -8 -4 -15 -9 -15 -13 0 -22 16 -14 24 11 11 23 6 23 -9z
m-105 -85 c-3 -5 -13 -10 -21 -10 -8 0 -14 5 -14 10 0 6 9 10 21 10 11 0 17
-4 14 -10z m136 -537 c-12 -20 -14 -14 -5 12 4 9 9 14 11 11 3 -2 0 -13 -6
-23z m-169 -163 c3 -16 1 -30 -4 -30 -4 0 -8 14 -8 30 0 17 2 30 4 30 2 0 6
-13 8 -30z m-92 -165 c0 -14 -4 -25 -10 -25 -8 0 -8 23 -1 48 4 12 11 -3 11
-23z m40 11 c0 -3 -4 -8 -10 -11 -5 -3 -10 -1 -10 4 0 6 5 11 10 11 6 0 10 -2
10 -4z m-60 -125 c0 -11 -4 -23 -10 -26 -6 -4 -10 5 -10 19 0 14 5 26 10 26 6
0 10 -9 10 -19z m40 -91 c0 -5 -5 -10 -11 -10 -5 0 -7 5 -4 10 3 6 8 10 11 10
2 0 4 -4 4 -10z m-210 -70 c0 -5 -7 -10 -16 -10 -8 0 -12 5 -9 10 3 6 10 10
16 10 5 0 9 -4 9 -10z m-395 -106 c12 -5 14 -9 4 -14 -14 -9 -39 -2 -39 11 0
11 12 11 35 3z m-41 -20 c20 -8 20 -20 0 -28 -8 -3 -12 -2 -9 4 9 14 -9 12
-23 -2 -9 -9 -12 -8 -12 4 0 9 6 19 13 21 6 3 13 6 14 6 1 1 8 -2 17 -5z"/>
<path d="M2785 6288 c-10 -15 -12 -24 -4 -27 6 -2 1 -8 -12 -15 -12 -6 -27
-20 -33 -31 -6 -11 -19 -30 -28 -44 -10 -13 -15 -27 -12 -32 3 -5 0 -8 -8 -7
-8 2 -12 -4 -10 -14 2 -11 -3 -18 -13 -18 -15 0 -15 -2 -1 -15 22 -22 33 -18
46 18 7 18 14 26 17 19 4 -10 8 -10 19 -1 12 9 12 15 2 27 -10 13 -10 14 0 8
6 -4 12 -3 12 1 0 5 -6 15 -12 22 -7 8 0 6 15 -4 19 -12 31 -15 38 -8 8 8 7
13 0 17 -14 9 -14 53 -1 61 8 5 7 12 -2 23 -11 13 -11 14 8 4 19 -10 21 -9 16
13 -5 31 -16 32 -37 3z"/>
<path d="M9851 6278 c-67 -106 -75 -124 -82 -176 -12 -83 -13 -87 -32 -107
-10 -10 -16 -24 -13 -32 3 -8 2 -12 -3 -9 -5 3 -12 -5 -15 -18 -3 -13 -8 -31
-11 -38 -4 -9 4 -19 19 -26 22 -10 24 -9 22 12 -2 19 2 22 28 22 24 -1 32 4
38 24 7 22 7 21 4 -7 -1 -18 1 -33 6 -33 4 0 8 6 9 13 0 6 4 1 10 -11 10 -27
3 -46 -13 -36 -6 4 -8 2 -4 -4 3 -5 1 -12 -5 -14 -8 -3 -8 -11 2 -28 8 -14 15
-27 16 -29 1 -1 6 0 12 4 7 4 6 14 -5 30 -22 33 0 41 25 9 23 -29 27 -44 10
-44 -5 0 -7 5 -4 10 3 6 4 10 1 10 -3 0 -13 -16 -21 -36 -12 -30 -13 -40 -3
-52 11 -13 10 -15 -5 -9 -10 4 -16 3 -12 -3 3 -5 -7 -16 -22 -24 -15 -8 -22
-15 -14 -16 21 0 -19 -29 -41 -30 -11 0 -18 -8 -18 -19 0 -10 -9 -21 -20 -24
-22 -6 -28 -43 -9 -49 9 -3 9 -10 -1 -27 -9 -18 -9 -32 0 -66 10 -37 10 -45
-6 -64 -12 -13 -30 -21 -50 -21 -25 0 -33 -5 -36 -23 -4 -22 1 -24 54 -18 4 1
22 17 41 36 19 19 41 35 50 35 20 0 35 -22 19 -28 -7 -2 -12 -10 -12 -18 0 -9
5 -12 10 -9 6 3 10 -1 10 -9 0 -9 6 -16 14 -16 16 0 77 70 71 80 -2 4 3 16 11
26 9 10 12 13 8 5 -5 -9 -3 -12 4 -7 9 5 9 13 1 27 -14 26 -4 37 20 22 15 -10
23 -7 45 16 14 15 26 31 26 37 0 5 9 15 21 22 18 11 19 16 7 30 -12 15 -11 16
4 4 14 -12 25 -7 80 36 121 94 242 147 404 177 49 10 91 19 93 21 11 11 -148
167 -272 267 -115 93 -268 203 -267 194 0 -1 7 -20 15 -42 20 -55 20 -99 0
-91 -31 12 -103 72 -140 118 -43 54 -54 58 -74 26z m-20 -675 c-7 -24 -9 -48
-6 -54 4 -5 1 -9 -4 -9 -16 0 -14 113 2 129 18 18 21 -11 8 -66z m79 7 c0 -5
-2 -10 -4 -10 -3 0 -8 5 -11 10 -3 6 -1 10 4 10 6 0 11 -4 11 -10z m10 -56 c0
-8 -3 -14 -8 -14 -11 0 -32 37 -25 44 9 8 33 -14 33 -30z m40 -60 c0 0 -9 -9
-20 -19 -20 -18 -21 -18 -14 0 6 14 4 16 -6 10 -8 -5 -11 -4 -7 1 4 7 47 15
47 8z m-163 -81 c-3 -3 -11 -2 -17 2 -8 5 -7 11 2 22 12 15 13 14 16 -1 2 -10
1 -20 -1 -23z"/>
<path d="M8370 6232 c0 -20 30 -242 39 -287 5 -28 37 -132 70 -230 59 -174 71
-225 52 -225 -11 0 -32 53 -72 175 -16 51 -42 121 -58 156 l-29 64 -4 -245
c-4 -269 -12 -198 82 -751 22 -133 43 -215 84 -335 30 -88 62 -185 70 -216 10
-36 23 -59 34 -62 37 -11 242 -45 337 -56 55 -6 151 -20 214 -31 63 -10 116
-17 118 -15 2 2 21 70 43 152 84 320 169 541 279 723 28 46 48 88 44 94 -3 5
-2 7 4 4 5 -3 20 7 32 24 23 31 24 52 1 24 -11 -14 -14 -13 -26 2 -19 26 -17
31 11 25 15 -2 25 0 25 7 0 7 -4 9 -10 6 -5 -3 -10 1 -10 9 0 24 -19 19 -32
-9 -6 -13 -15 -22 -20 -19 -5 3 -12 -3 -15 -15 -3 -11 -9 -18 -14 -15 -13 8
-11 34 3 31 6 -1 14 7 16 18 4 17 2 18 -12 6 -14 -12 -16 -10 -16 13 0 18 -5
26 -18 26 -10 0 -22 4 -27 9 -6 4 -23 11 -39 15 -25 6 -28 5 -23 -13 3 -14 -2
-25 -18 -35 -22 -14 -35 -12 -35 6 0 5 5 6 10 3 14 -9 12 3 -2 19 -11 11 -15
3 -26 -43 -7 -31 -14 -64 -15 -73 -1 -10 -4 -18 -7 -18 -3 0 -4 -18 -4 -40 1
-22 -2 -37 -7 -34 -5 3 -9 -2 -9 -10 0 -8 -5 -18 -12 -22 -7 -5 -8 -2 -3 7 6
11 4 10 -8 -1 -15 -14 -13 -75 2 -66 4 3 7 -4 7 -15 0 -10 -1 -19 -2 -19 -1 0
-30 53 -64 118 -101 191 -176 293 -325 445 -132 134 -221 252 -285 377 -35 69
-89 137 -184 232 -79 80 -146 131 -146 110z m1290 -1042 c0 -5 -4 -10 -10 -10
-5 0 -10 5 -10 10 0 6 5 10 10 10 6 0 10 -4 10 -10z"/>
<path d="M8137 6114 c-4 -32 -22 -106 -41 -164 -19 -58 -32 -107 -29 -110 7
-7 59 57 93 115 24 41 30 61 30 113 0 49 -3 62 -15 62 -9 0 -19 10 -24 22 -6
17 -9 8 -14 -38z"/>
<path d="M2917 6073 c6 -16 8 -16 23 1 9 12 8 15 -8 13 -12 0 -18 -6 -15 -14z"/>
<path d="M2605 6030 c-20 -27 -38 -62 -41 -77 -2 -15 -1 -23 3 -17 9 13 41 12
62 0 9 -6 12 -2 10 15 -2 23 1 36 22 87 9 24 5 42 -11 42 -4 0 -25 -22 -45
-50z"/>
<path d="M12029 5955 c-2 -80 -27 -344 -34 -358 -5 -13 -4 -18 6 -17 37 6 40
1 34 -44 -5 -28 -3 -46 4 -51 6 -3 8 -11 5 -17 -4 -6 -3 -9 2 -7 5 3 21 11 36
18 40 20 61 73 53 128 -5 36 -4 45 7 41 10 -4 13 5 13 39 -1 24 2 46 7 49 4 3
8 0 8 -6 0 -6 4 -9 9 -6 4 3 7 -7 5 -23 -2 -19 2 -31 12 -35 10 -4 13 -1 9 7
-4 6 0 4 8 -6 13 -15 15 -16 21 -2 3 8 11 15 17 15 8 0 8 -4 0 -14 -14 -17
-17 -61 -6 -95 5 -18 4 -22 -6 -15 -12 6 -12 5 0 -9 11 -14 11 -17 0 -17 -23
0 8 -23 33 -25 21 -2 23 -6 20 -56 -3 -51 -2 -53 14 -37 16 16 19 16 46 0 25
-15 30 -15 38 -2 7 12 10 9 10 -13 0 -15 7 -30 15 -33 12 -5 13 -9 3 -21 -9
-11 -9 -16 3 -24 8 -5 19 -9 24 -9 10 0 14 -16 15 -63 1 -13 6 -16 21 -12 14
5 17 3 13 -9 -3 -9 3 -20 15 -28 12 -7 21 -23 21 -36 0 -18 4 -23 16 -18 8 3
13 2 9 -3 -3 -5 1 -11 7 -14 8 -2 9 -8 4 -13 -5 -5 -11 -4 -13 4 -9 24 -23 12
-17 -14 5 -19 4 -25 -5 -20 -14 9 -10 -16 4 -26 20 -15 27 -8 20 19 -5 23 -4
25 9 14 18 -15 37 -6 29 14 -3 8 -1 15 5 15 5 0 13 -7 16 -16 8 -21 8 -26 -3
-20 -5 3 -14 -1 -20 -8 -10 -11 -8 -16 8 -21 14 -4 21 -15 21 -31 0 -13 5 -24
11 -24 6 0 8 -7 5 -16 -4 -11 -2 -15 7 -11 8 3 14 0 14 -7 0 -7 -14 -10 -39
-8 -34 4 -38 2 -38 -18 0 -20 4 -22 40 -18 36 3 39 1 42 -22 3 -21 8 -25 38
-26 59 -1 70 -4 70 -15 0 -15 26 -39 42 -39 8 0 20 6 27 13 11 10 13 9 9 -3
-3 -8 -17 -16 -32 -18 -22 -3 -25 -6 -15 -18 6 -8 20 -14 31 -14 13 0 18 -5
15 -14 -3 -8 5 -18 19 -25 20 -9 24 -18 24 -51 0 -34 -3 -40 -21 -40 -27 0
-21 -34 6 -36 11 -1 28 -2 38 -3 27 -2 21 -40 -8 -51 -14 -5 -25 -14 -25 -19
0 -16 30 -21 121 -22 109 -1 120 -9 90 -73 -12 -24 -21 -48 -20 -52 6 -36 -2
-43 -66 -49 -35 -4 -64 -10 -63 -14 4 -16 -15 -127 -23 -138 -7 -7 -6 -14 1
-18 15 -9 2 -25 -20 -25 -10 0 -20 -5 -22 -12 -3 -9 -14 -7 -40 5 -20 9 -45
17 -57 17 -12 0 -21 4 -21 10 0 5 -7 7 -15 3 -13 -4 -12 -8 7 -22 13 -9 27
-15 32 -13 5 2 6 -4 3 -12 -7 -17 41 -32 56 -17 12 12 63 -5 71 -25 3 -8 14
-14 25 -14 11 0 29 -10 40 -21 11 -12 26 -19 34 -16 7 3 52 -10 100 -27 l86
-33 -2 243 c-1 133 2 240 7 237 10 -6 -3 97 -13 112 -4 6 -42 54 -84 107 -82
104 -110 122 -150 95 -14 -9 -29 -12 -37 -7 -7 4 -19 6 -27 3 -8 -3 -13 2 -13
13 0 16 2 17 10 4 8 -13 10 -12 10 3 0 19 15 23 26 5 4 -7 3 -8 -4 -4 -7 4
-12 2 -12 -3 0 -13 29 -14 48 -2 10 6 3 16 -25 37 -92 69 -221 211 -281 309
-34 55 -78 120 -97 145 -19 25 -82 111 -140 191 -57 80 -116 157 -131 172 -14
14 -23 30 -20 35 3 6 -1 16 -10 23 -13 10 -17 10 -25 -2 -5 -8 -9 -9 -9 -3 0
5 5 15 10 20 7 7 -18 43 -76 110 -48 54 -95 113 -105 129 -16 25 -19 27 -20
10z m248 -402 c-3 -10 -5 -4 -5 12 0 17 2 24 5 18 2 -7 2 -21 0 -30z m389
-505 c5 -7 3 -8 -6 -3 -10 6 -12 4 -7 -8 3 -10 2 -17 -3 -17 -6 0 -10 9 -10
20 0 22 15 27 26 8z m11 -90 c-3 -7 -5 -2 -5 12 0 14 2 19 5 13 2 -7 2 -19 0
-25z m30 -60 c-3 -8 -6 -5 -6 6 -1 11 2 17 5 13 3 -3 4 -12 1 -19z m263 -168
c0 -13 -7 -20 -19 -20 -25 0 -38 20 -20 31 23 15 39 10 39 -11z m79 -81 c-19
-12 -39 -11 -39 2 0 6 7 9 15 5 8 -3 15 -1 15 5 0 6 5 7 11 3 8 -4 7 -9 -2
-15z m56 -41 c6 -4 2 -8 -7 -8 -10 0 -18 7 -18 17 0 9 3 12 8 7 4 -5 12 -12
17 -16z m24 -21 c-2 -1 -12 -9 -22 -16 -15 -12 -17 -12 -11 3 3 9 13 16 22 16
8 0 13 -1 11 -3z m-49 -277 c0 -5 -2 -10 -4 -10 -3 0 -8 5 -11 10 -3 6 -1 10
4 10 6 0 11 -4 11 -10z m12 -165 c3 -14 1 -25 -3 -25 -5 0 -9 11 -9 25 0 14 2
25 4 25 2 0 6 -11 8 -25z"/>
<path d="M1129 5924 c-10 -13 -14 -69 -15 -238 -1 -206 -8 -269 -33 -311 -3
-5 -7 -18 -8 -27 -4 -22 24 -13 30 10 2 10 3 7 2 -6 -1 -12 2 -25 7 -28 4 -3
6 -10 3 -15 -4 -5 -1 -9 4 -9 6 0 12 23 12 53 1 28 6 -2 10 -68 12 -169 25
-255 50 -311 12 -28 22 -72 22 -102 1 -32 4 -46 8 -35 11 26 11 -3 0 -49 -5
-21 -5 -38 -1 -38 5 0 11 10 13 23 3 16 5 14 6 -10 0 -17 -4 -35 -9 -38 -5 -3
-10 -1 -10 4 0 6 -11 11 -25 11 -23 0 -25 -4 -25 -44 0 -25 5 -48 10 -51 6 -3
10 -1 10 5 0 6 4 9 9 5 5 -3 12 7 14 22 3 16 4 4 4 -24 -1 -61 6 -74 23 -43 7
13 8 25 3 29 -4 3 -6 24 -3 46 5 37 6 35 19 -38 16 -88 8 -134 -22 -129 -14 2
-17 -5 -17 -37 0 -42 19 -69 21 -29 1 17 3 14 9 -11 5 -19 6 -40 3 -47 -2 -6
0 -15 6 -19 6 -3 14 1 17 9 3 9 11 16 16 16 6 0 8 -7 5 -15 -4 -8 -2 -17 3
-20 6 -4 10 -12 10 -20 0 -15 -40 -8 -52 9 -5 8 -8 7 -8 -1 0 -8 -14 -13 -37
-13 -82 0 -84 -4 -82 -89 2 -71 1 -76 -19 -79 -27 -4 -30 -41 -4 -43 9 -1 -1
-5 -23 -8 -34 -5 -40 -10 -43 -33 -2 -19 -9 -28 -20 -28 -10 0 -24 -9 -32 -21
-34 -48 -39 -54 -40 -42 0 9 -7 10 -26 3 -48 -19 -64 -7 -69 54 -1 11 -7 22
-15 24 -7 3 -10 0 -6 -6 3 -6 8 -32 11 -59 l5 -48 -34 71 c-18 39 -39 75 -45
78 -7 4 -9 17 -6 29 2 12 2 16 -1 9 -4 -8 -25 4 -65 39 -32 28 -59 55 -59 59
0 18 -158 333 -216 430 -51 86 -76 116 -134 164 -81 66 -94 64 -85 -14 3 -25
7 -164 10 -310 3 -146 9 -339 14 -430 6 -91 13 -227 17 -302 3 -76 9 -138 12
-138 8 0 183 69 222 87 19 9 109 42 200 73 147 51 167 60 179 86 8 16 18 31
23 32 4 2 6 7 4 11 -3 4 7 7 22 8 26 2 27 2 5 -9 -13 -6 -23 -17 -23 -25 0 -7
-5 -13 -12 -13 -6 0 -9 -2 -7 -4 2 -3 28 4 58 14 29 9 47 20 40 22 -7 2 5 4
27 5 39 0 120 21 264 67 41 14 86 27 100 30 14 2 79 21 145 41 162 50 255 76
485 136 107 28 221 59 252 70 32 10 64 19 73 19 9 0 18 6 21 13 10 27 -53 145
-123 233 -18 22 -29 45 -25 49 4 5 2 6 -3 2 -6 -3 -36 15 -68 41 -31 26 -66
55 -79 65 -23 19 -23 19 5 3 37 -23 51 -12 41 33 -4 20 -7 63 -6 96 1 33 -1
54 -4 47 -5 -11 -9 -10 -23 2 -24 21 -117 2 -125 -27 -5 -21 21 -66 39 -67 6
0 11 -9 12 -21 2 -20 1 -20 -16 -5 -26 24 -73 114 -66 126 3 5 2 10 -3 10 -5
0 -14 12 -20 26 -7 14 -8 23 -2 19 5 -3 10 1 10 9 0 9 -6 13 -13 10 -8 -3 -22
13 -36 43 -89 183 -228 390 -371 553 -50 58 -117 141 -147 185 -64 91 -103
138 -143 171 -25 22 -29 22 -41 8z m157 -1511 c-15 -15 -28 16 -20 49 l7 33
10 -38 c5 -21 6 -41 3 -44z m-40 -91 c-5 -8 -66 -4 -66 4 0 2 16 4 36 4 19 0
33 -4 30 -8z m98 -72 c5 -19 2 -16 -13 10 -11 19 -20 42 -20 50 0 18 24 -25
33 -60z m-114 -45 c0 -43 -10 -55 -39 -49 -40 10 -53 28 -13 21 31 -6 32 -6
32 29 0 21 4 33 10 29 6 -3 10 -17 10 -30z m-190 -245 c0 -5 -5 -10 -11 -10
-5 0 -7 5 -4 10 3 6 8 10 11 10 2 0 4 -4 4 -10z m-183 -22 c-3 -8 -6 -5 -6 6
-1 11 2 17 5 13 3 -3 4 -12 1 -19z"/>
<path d="M9660 5849 c0 -13 4 -18 13 -13 8 5 8 2 -2 -9 -7 -9 -9 -17 -3 -17 5
0 17 11 26 25 14 21 14 24 1 19 -8 -4 -15 -1 -15 5 0 6 -4 11 -10 11 -5 0 -10
-9 -10 -21z"/>
<path d="M10775 5800 c3 -5 15 -10 26 -10 11 0 17 5 14 10 -3 6 -15 10 -26 10
-11 0 -17 -4 -14 -10z"/>
<path d="M2440 5796 c0 -2 7 -9 15 -16 12 -10 15 -10 15 4 0 9 -7 16 -15 16
-8 0 -15 -2 -15 -4z"/>
<path d="M9790 5790 c0 -5 5 -10 10 -10 6 0 10 5 10 10 0 6 -4 10 -10 10 -5 0
-10 -4 -10 -10z"/>
<path d="M2407 5771 c3 -12 10 -21 15 -21 13 0 6 32 -9 37 -7 3 -9 -3 -6 -16z"/>
<path d="M11070 5756 c0 -3 17 -10 38 -16 20 -7 56 -20 79 -31 54 -24 67 -24
28 -1 -53 32 -145 62 -145 48z"/>
<path d="M2367 5710 c3 -12 0 -20 -6 -20 -7 0 -9 5 -5 11 3 6 -5 3 -19 -6 -15
-9 -29 -25 -32 -36 -4 -11 -10 -17 -15 -14 -11 7 -62 -54 -54 -66 9 -15 27
-10 20 6 -3 8 -1 15 4 15 5 0 12 9 15 21 6 19 7 20 20 2 7 -10 17 -15 21 -10
4 4 2 7 -4 7 -7 0 -12 4 -12 9 0 4 11 6 25 3 24 -4 25 -2 20 26 -4 26 -2 29
15 25 15 -4 20 0 20 15 0 12 -4 23 -9 26 -5 4 -7 -3 -4 -14z"/>
<path d="M2995 5720 c3 -5 10 -10 16 -10 5 0 9 5 9 10 0 6 -7 10 -16 10 -8 0
-12 -4 -9 -10z"/>
<path d="M3040 5692 c0 -43 -9 -62 -31 -62 -12 0 -19 -7 -19 -20 0 -15 7 -20
25 -20 16 0 25 6 25 16 0 9 9 18 21 21 17 5 20 12 17 47 -2 29 -8 42 -20 44
-14 3 -18 -3 -18 -26z"/>
<path d="M3300 5689 c0 -24 23 -21 28 4 2 10 -3 17 -12 17 -10 0 -16 -9 -16
-21z"/>
<path d="M11250 5685 c0 -2 10 -10 23 -16 20 -11 21 -11 8 4 -13 16 -31 23
-31 12z"/>
<path d="M9562 5661 c4 -48 -2 -62 -24 -59 -17 2 -26 -5 -37 -27 -14 -29 -53
-246 -45 -254 2 -2 4 1 4 8 0 7 4 10 9 7 14 -9 31 87 26 141 -3 35 -2 41 4 23
l9 -25 7 32 c4 17 13 34 21 37 8 3 11 12 8 21 -5 11 -2 14 11 9 14 -6 16 -15
12 -45 -5 -35 -3 -39 16 -39 19 0 22 7 25 45 2 35 -1 45 -13 45 -8 0 -15 4
-15 9 0 5 -3 16 -6 24 -3 10 2 18 15 22 12 3 19 11 15 16 -3 5 -10 7 -15 4 -5
-3 -6 0 -3 8 3 8 -1 14 -10 14 -8 0 -15 -7 -14 -16z"/>
<path d="M936 5582 c-10 -31 -27 -75 -37 -96 -25 -51 -24 -72 1 -25 22 41 64
168 58 174 -3 3 -12 -21 -22 -53z"/>
<path d="M9535 5630 c-3 -5 -1 -10 4 -10 6 0 11 5 11 10 0 6 -2 10 -4 10 -3 0
-8 -4 -11 -10z"/>
<path d="M10390 5575 c-41 -24 -86 -53 -100 -64 -24 -20 -24 -21 -3 -21 29 0
101 32 168 74 107 69 48 79 -65 11z"/>
<path d="M2775 5580 c-9 -41 -8 -44 18 -44 30 -1 36 44 8 61 -17 11 -20 9 -26
-17z"/>
<path d="M2910 5590 c0 -5 12 -10 26 -10 14 0 23 4 19 10 -3 6 -15 10 -26 10
-10 0 -19 -4 -19 -10z"/>
<path d="M1003 5543 c3 -13 2 -23 -1 -23 -13 0 -8 -153 6 -157 16 -6 17 165 1
187 -9 12 -10 11 -6 -7z"/>
<path d="M2123 5491 c-10 -15 -9 -20 2 -25 9 -3 12 0 8 10 -6 17 13 19 21 2 3
-7 5 -4 3 6 -3 27 -20 30 -34 7z"/>
<path d="M11967 5471 c-4 -17 -3 -21 5 -13 5 5 8 16 6 23 -3 8 -7 3 -11 -10z"/>
<path d="M12115 5481 c-3 -5 -2 -12 3 -15 5 -3 9 1 9 9 0 17 -3 19 -12 6z"/>
<path d="M2049 5413 c-59 -62 -92 -110 -84 -123 5 -8 11 -8 19 -1 9 8 23 5 49
-8 22 -11 38 -14 40 -8 4 12 27 1 27 -14 0 -5 -9 -9 -20 -9 -11 0 -20 -6 -20
-13 0 -8 15 -13 40 -13 21 -1 37 3 34 8 -3 4 -12 8 -20 8 -12 0 -12 4 -4 21 6
11 13 30 15 41 5 22 32 47 53 48 6 0 12 12 12 28 0 26 -2 28 -36 24 -25 -3
-38 -10 -41 -23 -6 -22 -41 -21 -53 2 -11 20 12 55 29 45 9 -6 9 -11 1 -21 -9
-11 -7 -12 10 -8 26 7 37 23 15 23 -10 0 -13 5 -9 12 4 7 3 8 -4 4 -7 -4 -12
-3 -12 3 0 5 6 12 13 14 6 3 7 6 2 6 -6 1 -31 -20 -56 -46z m4 -36 c3 -8 -1
-14 -9 -14 -8 0 -14 6 -14 14 0 7 4 13 9 13 5 0 11 -6 14 -13z m37 -42 c11
-13 10 -14 -4 -9 -9 3 -16 1 -16 -5 0 -6 -4 -11 -9 -11 -7 0 -8 17 -2 38 3 7
20 0 31 -13z"/>
<path d="M2160 5443 c0 -8 -4 -11 -10 -8 -6 3 -7 -1 -4 -9 7 -17 34 -22 34 -7
0 5 2 16 5 24 4 8 0 14 -10 14 -8 0 -15 -7 -15 -14z"/>
<path d="M2200 5430 c0 -11 7 -20 15 -20 8 0 15 9 15 20 0 11 -7 20 -15 20 -8
0 -15 -9 -15 -20z"/>
<path d="M9560 5440 c13 -9 13 -10 0 -10 -13 0 -13 -1 0 -10 26 -17 50 -12 50
10 0 16 -7 20 -32 20 -25 0 -29 -3 -18 -10z"/>
<path d="M7076 5417 c3 -10 9 -15 12 -12 3 3 0 11 -7 18 -10 9 -11 8 -5 -6z"/>
<path d="M11646 5366 c3 -8 12 -17 20 -20 11 -4 12 -2 1 14 -14 23 -29 27 -21
6z"/>
<path d="M9506 5351 c-3 -5 1 -14 8 -20 12 -10 13 -8 9 8 -6 23 -9 25 -17 12z"/>
<path d="M1026 5342 c-7 -12 7 -27 27 -29 12 -1 17 4 13 14 -3 8 -6 17 -6 19
0 7 -29 4 -34 -4z"/>
<path d="M3186 5323 c-11 -11 -6 -23 9 -23 8 0 15 4 15 9 0 13 -16 22 -24 14z"/>
<path d="M1080 5305 c0 -8 5 -15 10 -15 6 0 10 7 10 15 0 8 -4 15 -10 15 -5 0
-10 -7 -10 -15z"/>
<path d="M9740 5279 c0 -11 5 -17 10 -14 6 3 10 1 10 -4 0 -6 -8 -11 -17 -12
-12 0 -13 -2 -5 -6 15 -6 39 12 54 41 10 19 10 20 -5 7 -11 -9 -17 -10 -17 -2
0 6 -7 11 -15 11 -8 0 -15 -9 -15 -21z"/>
<path d="M1931 5254 c-24 -40 -22 -51 6 -35 13 7 14 10 4 11 -25 0 2 20 31 22
17 1 24 7 21 16 -3 7 -8 10 -11 8 -3 -3 -11 -1 -17 4 -9 8 -18 1 -34 -26z"/>
<path d="M9706 5282 c-3 -6 -1 -14 5 -17 15 -10 25 3 12 16 -7 7 -13 7 -17 1z"/>
<path d="M11744 5237 c3 -10 6 -26 6 -35 0 -15 2 -15 10 -2 8 13 10 13 10 -2
0 -9 11 -30 25 -46 14 -17 25 -35 25 -40 0 -6 14 -26 30 -44 17 -18 38 -53 47
-78 19 -51 71 -147 83 -155 11 -7 90 -168 90 -184 0 -6 7 -23 16 -36 9 -13 13
-28 10 -34 -3 -5 -2 -11 4 -13 6 -2 21 -35 35 -73 18 -54 24 -63 24 -40 1 50
-28 128 -121 323 -32 68 -58 128 -58 133 0 5 -5 9 -11 9 -6 0 -9 6 -6 13 3 8
1 20 -5 28 -8 11 -9 10 -4 -3 11 -36 -14 -17 -40 30 -81 143 -106 182 -114
177 -6 -3 -7 0 -5 7 3 7 -9 29 -26 48 -17 20 -28 27 -25 17z"/>
<path d="M3238 5205 c-4 -16 -1 -25 8 -25 14 0 23 19 16 38 -7 20 -19 14 -24
-13z"/>
<path d="M11928 5184 c-3 -46 8 -82 19 -56 9 23 23 12 23 -18 0 -17 -8 -40
-19 -51 -12 -13 -17 -28 -13 -42 3 -12 7 -17 9 -11 2 6 15 9 28 6 20 -3 25 0
25 16 0 11 -6 23 -12 25 -7 3 -2 6 11 6 17 1 22 5 17 17 -3 9 -6 17 -6 20 0 2
-7 1 -15 -2 -12 -5 -15 2 -15 31 0 21 4 34 10 30 6 -3 10 1 10 10 0 9 -4 14
-9 11 -5 -3 -12 6 -15 19 -4 14 -11 23 -16 20 -6 -3 -10 -1 -10 4 0 6 -4 11
-9 11 -5 0 -11 -21 -13 -46z"/>
<path d="M12440 5089 c0 -5 11 -9 25 -9 14 0 25 2 25 4 0 2 -11 6 -25 8 -14 3
-25 1 -25 -3z"/>
<path d="M1880 5001 c0 -7 -4 -9 -10 -6 -5 3 -10 1 -10 -4 0 -6 4 -11 9 -11
13 0 25 20 17 27 -3 4 -6 1 -6 -6z"/>
<path d="M11980 4960 c0 -5 5 -10 10 -10 6 0 10 5 10 10 0 6 -4 10 -10 10 -5
0 -10 -4 -10 -10z"/>
<path d="M1893 4942 c0 -9 4 -22 9 -28 4 -6 6 -18 2 -27 -8 -21 12 -31 21 -9
13 30 15 63 3 56 -7 -5 -9 -2 -6 7 4 9 -1 15 -11 16 -10 1 -18 -6 -18 -15z"/>
<path d="M9777 4880 c-50 -31 -74 -68 -63 -96 5 -14 9 -13 26 9 28 35 103 70
132 62 13 -4 38 -18 56 -32 64 -48 103 9 41 61 -46 39 -128 37 -192 -4z"/>
<path d="M10810 4869 c-27 -11 -60 -38 -60 -49 0 -4 22 -5 49 -2 70 6 132 -24
169 -82 28 -44 30 -45 47 -26 35 38 -19 122 -102 157 -37 15 -68 16 -103 2z"/>
<path d="M1191 4794 c0 -11 3 -14 6 -6 3 7 2 16 -1 19 -3 4 -6 -2 -5 -13z"/>
<path d="M870 4756 c0 -9 30 -14 35 -6 4 6 -3 10 -14 10 -12 0 -21 -2 -21 -4z"/>
<path d="M2585 4750 c-3 -5 1 -10 9 -10 9 0 16 5 16 10 0 6 -4 10 -9 10 -6 0
-13 -4 -16 -10z"/>
<path d="M9971 4734 c0 -11 3 -14 6 -6 3 7 2 16 -1 19 -3 4 -6 -2 -5 -13z"/>
<path d="M9752 4728 c-35 -35 4 -127 70 -160 35 -18 38 -18 70 -2 59 30 78 54
78 99 l0 41 -42 1 c-22 1 -50 -3 -61 -8 -15 -9 -24 -6 -46 15 -30 28 -50 33
-69 14z"/>
<path d="M2580 4710 c0 -5 7 -10 15 -10 8 0 15 5 15 10 0 6 -7 10 -15 10 -8 0
-15 -4 -15 -10z"/>
<path d="M10832 4699 c-31 -21 -35 -21 -73 -6 -37 14 -40 14 -49 -3 -17 -31
-12 -102 10 -137 24 -40 50 -54 101 -55 44 0 87 31 115 84 21 40 18 48 -16 42
-27 -6 -30 -4 -30 18 0 13 5 29 12 36 8 8 8 15 -2 27 -17 20 -28 19 -68 -6z"/>
<path d="M862 4658 c3 -40 5 -43 36 -46 18 -2 30 -8 27 -13 -4 -5 -2 -9 3 -9
13 0 23 27 16 45 -3 8 -15 17 -25 20 -14 5 -18 12 -14 26 5 15 1 19 -20 19
-25 0 -26 -3 -23 -42z"/>
<path d="M2085 4690 c-3 -5 3 -10 15 -10 12 0 18 5 15 10 -3 6 -10 10 -15 10
-5 0 -12 -4 -15 -10z"/>
<path d="M12798 4674 c6 -33 45 -30 50 4 3 18 -1 22 -26 22 -26 0 -29 -3 -24
-26z"/>
<path d="M2680 4590 c0 -5 11 -10 25 -10 14 0 25 5 25 10 0 6 -11 10 -25 10
-14 0 -25 -4 -25 -10z"/>
<path d="M2537 4583 c-15 -15 -5 -23 28 -23 39 0 47 14 13 24 -29 7 -33 7 -41
-1z"/>
<path d="M2970 4560 c0 -5 5 -10 10 -10 6 0 10 5 10 10 0 6 -4 10 -10 10 -5 0
-10 -4 -10 -10z"/>
<path d="M3045 4560 c-3 -5 -1 -10 4 -10 6 0 11 5 11 10 0 6 -2 10 -4 10 -3 0
-8 -4 -11 -10z"/>
<path d="M3008 4543 c7 -3 16 -2 19 1 4 3 -2 6 -13 5 -11 0 -14 -3 -6 -6z"/>
<path d="M2573 4523 c9 -2 25 -2 35 0 9 3 1 5 -18 5 -19 0 -27 -2 -17 -5z"/>
<path d="M12790 4494 c0 -8 5 -12 10 -9 6 3 10 10 10 16 0 5 -4 9 -10 9 -5 0
-10 -7 -10 -16z"/>
<path d="M1000 4461 c0 -6 5 -11 11 -11 8 0 8 -5 -1 -15 -7 -8 -9 -15 -4 -15
16 0 30 15 29 30 0 17 -35 27 -35 11z"/>
<path d="M12171 4403 c-1 -17 4 -35 9 -38 12 -7 12 22 0 50 -7 17 -9 15 -9
-12z"/>
<path d="M2600 4400 c0 -5 7 -7 15 -4 8 4 15 8 15 10 0 2 -7 4 -15 4 -8 0 -15
-4 -15 -10z"/>
<path d="M2440 4365 c-10 -12 -10 -15 4 -15 9 0 16 7 16 15 0 8 -2 15 -4 15
-2 0 -9 -7 -16 -15z"/>
<path d="M2470 4370 c0 -12 17 -12 45 0 17 7 15 9 -12 9 -18 1 -33 -3 -33 -9z"/>
<path d="M12191 4345 c0 -5 6 -38 14 -72 10 -42 12 -71 6 -87 -8 -21 -7 -23
10 -19 21 6 26 23 7 23 -10 0 -10 2 0 8 10 7 7 24 -12 83 -13 41 -24 70 -25
64z"/>
<path d="M10585 4320 c-14 -22 -85 -60 -154 -80 -59 -18 -90 -22 -164 -18 -92
4 -139 19 -209 65 -43 28 -55 8 -40 -66 37 -180 120 -264 288 -293 66 -11 75
-10 126 11 30 12 74 40 97 62 72 69 115 199 97 293 -7 35 -28 48 -41 26z"/>
<path d="M663 4285 c0 -8 4 -15 9 -15 4 0 8 4 8 9 0 6 -4 12 -8 15 -5 3 -9 -1
-9 -9z"/>
<path d="M665 4250 c3 -5 8 -10 11 -10 2 0 4 5 4 10 0 6 -5 10 -11 10 -5 0 -7
-4 -4 -10z"/>
<path d="M694 4235 c-3 -8 8 -28 27 -47 18 -18 27 -26 22 -18 -12 17 -13 19
-13 55 0 28 -27 35 -36 10z m26 -5 c0 -5 -5 -10 -11 -10 -5 0 -7 5 -4 10 3 6
8 10 11 10 2 0 4 -4 4 -10z"/>
<path d="M1035 4220 c3 -5 18 -10 33 -9 24 0 25 1 7 9 -28 12 -47 12 -40 0z"/>
<path d="M950 4197 c0 -24 22 -36 54 -30 32 6 48 21 40 35 -9 14 -94 9 -94 -5z
m60 -5 c0 -4 -12 -8 -27 -9 -24 -1 -25 -1 -8 7 26 11 35 12 35 2z"/>
<path d="M11671 4020 c-1 -224 9 -304 64 -525 25 -99 50 -227 56 -285 6 -58
19 -167 30 -242 23 -166 24 -250 4 -393 -17 -121 -36 -167 -127 -306 -29 -46
-60 -97 -67 -113 -18 -42 -63 -100 -150 -189 -102 -106 -209 -184 -306 -223
-177 -73 -443 -148 -664 -187 -41 -7 -76 -18 -78 -24 -5 -14 194 -31 457 -38
l215 -6 22 44 c46 95 131 125 224 79 25 -12 50 -22 56 -22 24 0 208 92 286
143 158 103 359 305 473 475 127 188 206 435 224 697 19 263 9 478 -30 645
-10 47 -28 123 -39 170 -11 47 -24 112 -30 144 -6 33 -14 62 -17 65 -4 3 -4
-7 -1 -24 10 -52 17 -121 11 -108 -3 7 -12 9 -20 6 -9 -3 -14 2 -14 16 0 12
-4 21 -10 21 -5 0 -10 17 -11 38 0 20 -3 31 -6 24 -4 -10 -8 -10 -18 -2 -8 6
-12 17 -9 25 3 7 1 16 -5 20 -7 4 -11 -4 -11 -19 0 -21 -5 -26 -25 -26 -18 0
-25 5 -25 19 0 28 -11 32 -81 33 -68 1 -154 29 -154 50 -1 20 -15 39 -26 33
-5 -4 -9 3 -9 13 0 13 -9 22 -26 26 -21 6 -25 12 -22 34 3 26 1 27 -42 28 -62
1 -88 11 -93 37 -2 12 -5 -57 -6 -153z m54 79 c-6 -45 -15 -49 -15 -6 0 21 4
37 9 37 5 0 8 -14 6 -31z"/>
<path d="M12580 4177 c0 -12 24 -23 89 -42 16 -5 21 -4 17 4 -4 6 -16 11 -27
11 -11 0 -22 6 -25 14 -3 9 -12 12 -21 9 -11 -4 -14 -2 -9 5 4 7 1 12 -8 12
-9 0 -16 -6 -16 -13z"/>
<path d="M12225 4140 c3 -5 10 -10 16 -10 5 0 9 5 9 10 0 6 -7 10 -16 10 -8 0
-12 -4 -9 -10z"/>
<path d="M12735 4120 c-3 -5 -2 -10 4 -10 5 0 13 5 16 10 3 6 2 10 -4 10 -5 0
-13 -4 -16 -10z"/>
<path d="M12234 4100 c0 -11 4 -20 8 -20 4 0 8 -21 8 -47 0 -27 5 -55 10 -63
14 -22 13 35 -2 99 -12 52 -24 67 -24 31z"/>
<path d="M870 4070 c0 -6 7 -10 15 -10 8 0 15 2 15 4 0 2 -7 6 -15 10 -8 3
-15 1 -15 -4z"/>
<path d="M930 4060 c0 -11 7 -20 15 -20 8 0 15 5 15 10 0 6 7 10 15 10 8 0 15
5 15 10 0 6 -13 10 -30 10 -23 0 -30 -4 -30 -20z"/>
<path d="M12220 4046 c0 -9 5 -16 10 -16 6 0 10 4 10 9 0 6 -4 13 -10 16 -5 3
-10 -1 -10 -9z"/>
<path d="M12151 4008 c-1 -16 4 -28 9 -28 12 0 12 8 0 35 -8 18 -9 17 -9 -7z"/>
<path d="M12225 3999 c-4 -12 -2 -26 4 -32 8 -8 11 -2 11 21 0 37 -6 41 -15
11z"/>
<path d="M4970 3211 c0 -8 -44 -23 -72 -25 -3 -1 -10 -4 -14 -8 -4 -5 -15 -8
-25 -8 -10 0 -21 -5 -25 -11 -7 -12 72 -3 91 10 6 4 30 14 54 21 35 11 40 15
25 21 -26 11 -34 10 -34 0z"/>
<path d="M4620 3150 c-8 -5 -11 -12 -8 -15 4 -4 13 -3 20 1 7 5 21 7 32 5 11
-1 16 2 12 8 -9 13 -36 14 -56 1z"/>
<path d="M4765 3135 c-23 -10 -25 -14 -10 -14 21 -1 52 15 45 23 -3 2 -18 -2
-35 -9z"/>
<path d="M4570 3130 c-8 -5 -11 -12 -7 -16 4 -4 15 0 24 9 18 18 8 23 -17 7z"/>
<path d="M11020 3129 c0 -5 5 -7 10 -4 6 3 10 8 10 11 0 2 -4 4 -10 4 -5 0
-10 -5 -10 -11z"/>
<path d="M4670 3105 c-19 -7 -28 -14 -19 -14 9 -1 32 6 50 14 43 18 16 18 -31
0z"/>
<path d="M9933 2740 c-15 -17 -36 -30 -45 -30 -21 0 -23 -27 -7 -64 8 -17 19
-25 33 -24 12 1 32 -2 44 -6 22 -7 23 -6 12 13 -13 25 -4 45 16 37 11 -4 13 1
10 19 -5 25 9 36 16 13 3 -7 7 -5 11 6 5 11 3 15 -5 10 -7 -5 -9 -2 -5 9 6 16
-6 29 -35 40 -11 4 -27 -4 -45 -23z m72 0 c3 -5 2 -10 -4 -10 -5 0 -13 5 -16
10 -3 6 -2 10 4 10 5 0 13 -4 16 -10z"/>
<path d="M995 2441 c-73 -18 -133 -66 -190 -150 -24 -37 -49 -80 -55 -95 -5
-15 -21 -51 -34 -80 -14 -30 -36 -93 -51 -142 -14 -49 -39 -132 -55 -184 -16
-52 -38 -129 -49 -170 -20 -79 -93 -333 -161 -560 -43 -145 -58 -222 -89 -482
-27 -217 -28 -304 -3 -317 20 -11 286 0 467 19 238 24 598 40 895 39 302 -1
315 0 318 18 5 33 -25 86 -128 228 -152 208 -170 254 -170 421 0 115 10 177
81 487 43 187 49 230 47 304 l-3 87 -116 41 c-154 55 -225 90 -279 140 -81 75
-160 135 -213 161 -140 71 -181 117 -179 201 0 24 -1 43 -1 42 -1 -1 -15 -4
-32 -8z"/>
<path d="M10749 2097 c-56 -53 -158 -113 -252 -148 l-52 -19 53 5 c91 10 221
74 278 137 17 19 42 79 32 78 -2 -1 -28 -24 -59 -53z"/>
<path d="M9910 1716 c30 -19 87 -55 127 -81 94 -60 173 -84 173 -51 0 9 -7 12
-18 9 -20 -5 -204 84 -242 117 -13 11 -29 20 -37 20 -7 0 -13 5 -13 10 0 6
-10 10 -22 10 -18 0 -10 -9 32 -34z"/>
<path d="M10226 1571 c5 -4 23 -11 39 -15 l30 -6 -25 15 c-27 16 -60 21 -44 6z"/>
<path d="M10378 1380 c-9 -6 -55 -18 -103 -27 -84 -16 -87 -16 -134 4 l-49 20
-4 -39 c-5 -49 2 -53 105 -67 137 -19 247 -8 247 24 0 20 -31 95 -39 95 -3 0
-14 -5 -23 -10z"/>
<path d="M11406 1310 c-35 -23 -150 -43 -211 -38 -44 3 -45 3 -45 -28 0 -30 2
-31 53 -38 78 -9 192 -7 221 4 23 9 26 7 26 -14 0 -39 -24 -49 -128 -54 -78
-4 -105 -1 -130 12 l-32 17 0 -35 c0 -34 2 -35 46 -42 79 -12 207 0 245 22 33
20 34 22 33 85 0 62 -19 120 -39 125 -5 1 -23 -6 -39 -16z"/>
<path d="M10013 1188 c-21 -10 -59 -18 -85 -18 -26 0 -59 -5 -73 -10 -15 -6
-61 -17 -103 -26 -136 -27 -248 -96 -301 -186 -13 -21 -29 -38 -37 -38 -8 0
-14 -4 -14 -10 0 -5 -7 -7 -15 -4 -9 4 -15 0 -15 -7 0 -11 -2 -11 -8 -1 -16
25 -287 -29 -381 -76 -73 -36 -82 -52 -55 -100 33 -58 185 -124 349 -151 33
-6 103 -20 155 -31 87 -19 328 -54 540 -79 96 -12 306 -27 485 -36 134 -7 139
-7 280 -32 82 -14 162 -17 440 -17 320 0 350 2 520 27 261 40 384 70 481 117
167 81 201 146 126 244 -40 54 -117 102 -217 137 -182 63 -500 122 -480 89 3
-5 1 -10 -4 -10 -6 0 -11 4 -11 9 0 15 -41 21 -175 26 -172 7 -245 12 -251 18
-3 3 -26 -1 -51 -9 -35 -11 -61 -11 -116 -3 -40 5 -161 12 -270 15 -109 3
-209 9 -222 14 -19 7 -24 18 -29 73 -5 44 -12 67 -23 71 -8 3 -46 3 -84 0 -41
-4 -92 -2 -126 5 -91 19 -186 19 -230 -1z m-6 -49 c11 -4 24 -13 29 -20 5 -9
2 -10 -12 -5 -17 7 -122 25 -149 26 -5 0 -3 5 5 10 15 10 87 4 127 -11z m1223
-252 c0 -14 -4 -16 -19 -7 -24 12 -51 49 -51 68 0 8 13 2 35 -15 19 -15 35
-36 35 -46z m-173 44 c23 -11 62 -38 87 -61 39 -36 48 -40 61 -30 23 19 30 4
11 -25 -21 -31 -34 -32 -45 -1 -11 28 -118 101 -161 111 -32 7 -41 25 -12 25
9 0 36 -9 59 -19z m-132 -11 c-21 -11 -40 -18 -43 -16 -5 6 50 35 68 36 8 0
-3 -9 -25 -20z"/>
</g>
</svg>
